<svg viewBox="0 0 600 800" style="background-color:#ffffff00" xmlns="http://www.w3.org/2000/svg" width="600" height="800"><path d="M320 133c0 11.046-8.954 20-20 20-11.045 0-20-8.954-20-20s8.955-20 20-20c11.046 0 20 8.954 20 20z" fill="#ff6500"/><path d="M314.593 126.124a.4.4 0 0 0 .402-.4v-1.737a.4.4 0 0 0-.402-.4h-9.67a.4.4 0 0 0-.4.4v1.736c0 .222.18.4.4.4h2.192c-.235.603-.57 1.455-.883 2.25-.378.96-.722 1.835-.816 2.08l-.925 2.46c-.35.906-2.054 5.28-2.95 7.575-1.113-2.903-3.85-9.957-3.88-10.03-.09-.254-.433-1.158-.804-2.14-.295-.78-.608-1.608-.828-2.194h2.35a.4.4 0 0 0 .403-.4v-1.737a.4.4 0 0 0-.4-.4h-12.7a.402.402 0 0 0-.402.4v1.736c0 .222.18.4.402.4h3.04l9.264 21.413c.064.147.21.242.368.242h3.8c.16 0 .306-.096.37-.244l9.17-21.41h2.9z" fill="#fff"/><path d="M330 564c0 16.568-13.43 30-30 30-16.568 0-30-13.432-30-30 0-16.568 13.432-30 30-30 16.57 0 30 13.432 30 30z" fill="#ff6500"/><path d="M321.89 553.686c.332 0 .602-.27.602-.602v-2.604c0-.332-.27-.6-.602-.6h-14.504a.602.602 0 0 0-.603.6v2.604a.6.6 0 0 0 .603.602h3.287c-.353.904-.856 2.18-1.324 3.372a643.54 643.54 0 0 0-1.226 3.12l-1.388 3.69c-.527 1.36-3.082 7.92-4.428 11.364a5178.32 5178.32 0 0 0-5.817-15.047c-.137-.38-.65-1.736-1.206-3.207-.442-1.17-.912-2.412-1.242-3.292h3.527a.6.6 0 0 0 .6-.602v-2.604c0-.332-.268-.6-.6-.6h-19.05a.602.602 0 0 0-.603.6v2.604c0 .333.27.602.603.602h4.56l13.896 32.117c.096.22.313.364.552.364h5.7c.24 0 .46-.144.554-.365l13.754-32.116h4.354z" fill="#fff"/><path d="M315 30.5c0 8.284-6.716 15-15 15-8.284 0-15-6.716-15-15 0-8.284 6.716-15 15-15 8.284 0 15 6.716 15 15z" fill="#ff6500"/><path d="M310.945 25.343a.3.3 0 0 0 .3-.3V23.74a.3.3 0 0 0-.3-.3h-7.252a.3.3 0 0 0-.3.3v1.302a.3.3 0 0 0 .3.3h1.644l-.663 1.687c-.284.72-.542 1.376-.612 1.56l-.694 1.844c-.264.68-1.54 3.96-2.214 5.682a2599.83 2599.83 0 0 0-2.91-7.524c-.067-.19-.324-.867-.602-1.603-.22-.586-.456-1.207-.62-1.647h1.762a.3.3 0 0 0 .3-.3V23.74a.3.3 0 0 0-.3-.3h-9.524a.3.3 0 0 0-.3.3v1.302a.3.3 0 0 0 .3.3h2.28l6.948 16.06c.048.11.156.18.276.18l2.85.002a.3.3 0 0 0 .277-.183s6.1-14.237 6.878-16.057h2.177z" fill="#fff"/><g><path d="M342.266 250.894h-2.087c-1.696 0-2.926-2.125-3.916-3.832l-.053-.093c-.266-.453-.506-.928-.74-1.387-.785-1.552-1.594-3.15-3.576-4.39 3.583-1.374 5.54-3.91 5.54-7.225 0-5.142-4.293-8.212-11.482-8.212h-15.13c-.26 0-.47.21-.47.47v2.028c0 .26.21.47.47.47h3.907v22.17h-2.91a.47.47 0 0 0-.468.47v2.03c0 .26.21.47.47.47h15.3c.26 0 .47-.21.47-.47v-2.03a.47.47 0 0 0-.47-.47h-4.415v-8.465c.503.003 1.115.038 1.617.217.896.355 3.774 4.918 5.663 8.622 1.353 2.412 3.335 2.613 5.25 2.613.28 0 .57-.004.86-.01l6.17-.01c.258 0 .468-.21.468-.47v-2.03a.47.47 0 0 0-.47-.47zm-12.808-17.392c0 2.992-1.284 4.508-4.057 4.77-.01.002-1.22.15-2.693.133v-9.681h2.61c2.002 0 4.14 1.255 4.14 4.78zM362.553 225.755H346.91a.47.47 0 0 0-.468.47v1.826c0 .26.21.47.47.47h3.908v22.374h-4.313a.47.47 0 0 0-.468.47v2.03c0 .26.208.47.467.47h16.046c9.922 0 15.385-5.028 15.385-14.156 0-8.867-5.607-13.953-15.385-13.953zm7.33 14.02c0 6.225-3.352 10.918-7.798 10.918h-3.287v-21.97h3.345c4.34 0 7.74 4.855 7.74 11.052zM397.964 225.756H382.17a.47.47 0 0 0-.47.47v2.028c0 .26.21.47.47.47h3.908v22.17h-3.908a.47.47 0 0 0-.47.47v2.03c0 .26.21.47.47.47h15.794c.26 0 .47-.21.47-.47v-2.03a.47.47 0 0 0-.47-.47h-3.908v-22.17h3.908c.26 0 .47-.21.47-.47v-2.03a.47.47 0 0 0-.47-.468zM435.712 250.894h-3.55c-1.22-2.83-10.81-25.04-10.81-25.04a.47.47 0 0 0-.43-.28h-4.436a.468.468 0 0 0-.43.283s-9.49 22.2-10.704 25.037h-3.387a.47.47 0 0 0-.47.47v2.03c0 .26.21.47.47.47h11.286c.26 0 .47-.21.47-.47v-2.03a.47.47 0 0 0-.47-.47h-2.557c.26-.667.626-1.598.974-2.484.362-.92.704-1.793.89-2.272h9.285c.17.457.475 1.263.8 2.127.352.93.73 1.928.99 2.63h-2.744c-.258 0-.467.21-.467.47v2.03c0 .258.21.468.468.468h14.824a.47.47 0 0 0 .467-.47v-2.03c0-.258-.21-.47-.47-.47h.002zm-16.148-10.367l.66 1.79h-6.22c.682-1.76 2.287-5.885 3.192-8.208.637 1.718 1.63 4.416 2.368 6.417zM307.465 250.894h-2.233l-10.812-25.04a.468.468 0 0 0-.43-.282h-4.435a.468.468 0 0 0-.43.285l-10.703 25.037h-3.388a.47.47 0 0 0-.468.47v2.03c0 .26.21.47.47.47h11.284c.26 0 .47-.21.47-.47v-2.03a.47.47 0 0 0-.47-.47h-2.558c.27-.693.655-1.672 1.016-2.59l.85-2.166h9.284c.172.463.482 1.284.813 2.16.348.92.718 1.904.977 2.596h-2.744a.47.47 0 0 0-.47.47v2.03c0 .26.21.47.47.47h13.507a.47.47 0 0 0 .468-.47v-2.03a.47.47 0 0 0-.468-.47zm-14.833-10.37l.66 1.794h-6.22c.684-1.76 2.288-5.886 3.194-8.21.637 1.72 1.63 4.416 2.366 6.416zM208.862 225.756h-14.285a.47.47 0 0 0-.468.47v2.03a.47.47 0 0 0 .47.47l4.575-.023v14.5l-14.2-17.276a.47.47 0 0 0-.362-.17h-11.24a.47.47 0 0 0-.47.468v2.03c0 .26.21.47.47.47h4.85l.433.562-.027 9.88-.033 11.727h-4.13a.47.47 0 0 0-.47.47v2.03c0 .26.21.47.47.47h13.82c.26 0 .47-.21.47-.47v-2.03a.47.47 0 0 0-.47-.47h-5.077l-.006-15.775 15.747 19.112c.09.108.222.17.362.17h4.737c.257 0 .468-.21.468-.47v-25.208h4.364c.26 0 .47-.21.47-.47v-2.03a.47.47 0 0 0-.47-.468zM278.578 228.254v-2.03a.47.47 0 0 0-.468-.468h-14.227a.47.47 0 0 0-.47.47v2.028c0 .26.21.47.47.47h4.35v14.41c0 6.408-3.887 7.752-7.147 7.752-5.307 0-5.88-6.02-5.88-8.61v-13.552h4.374c.26 0 .47-.21.47-.47v-2.03a.47.47 0 0 0-.47-.468h-16.545a.47.47 0 0 0-.47.47v2.028c0 .26.212.47.47.47h4.25v14.968c0 6.71 5.13 11.047 13.074 11.047 8.095 0 13.327-4.477 13.327-11.405v-14.61h4.423c.26 0 .468-.212.468-.47zM170.685 250.894h-1.787l-10.813-25.038a.467.467 0 0 0-.43-.283h-4.435a.468.468 0 0 0-.43.284l-10.703 25.037H138.7a.47.47 0 0 0-.47.47v2.03c0 .26.21.47.47.47h11.285a.47.47 0 0 0 .468-.47v-2.03a.47.47 0 0 0-.468-.47h-2.558l1.03-2.628c.342-.867.66-1.675.835-2.128h9.285c.175.468.49 1.303.824 2.19.345.912.71 1.88.967 2.566h-2.744a.47.47 0 0 0-.468.47v2.03c0 .26.21.47.468.47h13.062a.47.47 0 0 0 .468-.47v-2.03a.47.47 0 0 0-.468-.47zm-14.56-10.837c.055.148.11.3.163.44l.67 1.82h-6.22c.683-1.76 2.287-5.885 3.193-8.208.59 1.59 1.482 4.01 2.195 5.947zM144.215 228.504a.47.47 0 0 0 .47-.47v-2.03a.47.47 0 0 0-.47-.468H132.93a.47.47 0 0 0-.47.47v2.03c0 .258.21.468.47.468h2.557c-.274.704-.666 1.7-1.03 2.63a510.855 510.855 0 0 0-.953 2.43l-1.08 2.877c-.41 1.063-2.398 6.177-3.445 8.86a4302.813 4302.813 0 0 0-4.528-11.73c-.107-.295-.506-1.352-.94-2.5-.343-.91-.71-1.88-.965-2.566h2.744c.26 0 .47-.21.47-.47v-2.03a.47.47 0 0 0-.47-.468h-14.82a.47.47 0 0 0-.47.47v2.03c0 .258.21.468.47.468h3.546l10.813 25.04a.47.47 0 0 0 .43.282h4.435a.47.47 0 0 0 .43-.285l10.702-25.036h3.388zM240.637 242.558h-12.652a.47.47 0 0 0-.468.47v2.247c0 .26.21.47.468.47h3.967v5.555c-.837.2-1.41.274-2.08.274-6.13 0-10.58-5.217-10.58-12.405 0-6.754 5.15-10.934 9.92-10.934 2.304 0 4.002.237 5.448.767v3.63c0 .26.21.47.468.47h2.486a.47.47 0 0 0 .468-.47v-5.87a.47.47 0 0 0-.287-.432c-2.03-.848-4.91-1.823-9.224-1.823-10.838 0-17.842 5.993-17.842 15.27 0 9.508 6.362 14.962 17.453 14.962 4.667 0 10.59-1.614 10.84-1.683a.47.47 0 0 0 .345-.452v-6.86h1.272c.258 0 .468-.21.468-.47v-2.248a.47.47 0 0 0-.468-.47z" fill="#ff6500"/><path d="M451.55 225.395h2.763l3.78 17.715c.61 2.81 1.137 5.905 1.34 8.39.204-2.526.814-5.458 1.423-8.35l3.82-17.755h2.765l1.87 28.385h-2.072l-1.098-18.123c-.162-2.81-.325-5.986-.325-8.063-.325 2.118-.935 5.09-1.545 8.023l-3.74 18.163h-2.153l-3.698-18.04c-.652-3.137-1.302-6.273-1.587-8.227 0 1.995-.122 5.13-.325 8.267l-1.057 18h-1.99l1.83-28.385zM480.57 238.467l-5.853-13.072h2.195l4.958 11.484 4.756-11.485h2.114l-5.57 12.87L490 253.78h-2.195l-5.894-13.846-5.65 13.846h-2.112l6.422-15.313zM432.304 227.207c0-.984.73-1.744 1.72-1.744.98 0 1.71.754 1.71 1.744s-.73 1.743-1.71 1.743c-.99 0-1.72-.754-1.72-1.743zm3.136 0c0-.826-.602-1.472-1.417-1.472-.824 0-1.426.653-1.426 1.472 0 .824.602 1.47 1.426 1.47.815 0 1.417-.646 1.417-1.47zm-2.04-.933h.658c.43 0 .65.15.65.495 0 .278-.142.443-.4.48.1.028.165.1.222.214l.273.603h-.437l-.244-.56c-.057-.135-.086-.157-.207-.157h-.122v.717h-.394v-1.793zm.593.817c.215 0 .315-.085.315-.27 0-.174-.1-.26-.3-.26h-.215v.53h.2zM443.71 255a.26.26 0 0 1-.26-.26v-34.48a.26.26 0 0 1 .522 0v34.48a.26.26 0 0 1-.26.26z" fill="#221e1f"/></g><g><path d="M353.39 361.84h-2.638c-2.14 0-3.695-2.674-4.945-4.82l-.066-.116c-.337-.568-.64-1.165-.935-1.743-.992-1.95-2.014-3.958-4.518-5.518 4.526-1.726 6.997-4.914 6.997-9.082 0-6.465-5.422-10.324-14.503-10.324H313.67a.59.59 0 0 0-.59.59v2.55c0 .327.263.59.59.59h4.937v27.873h-3.673a.59.59 0 0 0-.592.59v2.55c0 .327.265.59.592.59h19.33a.59.59 0 0 0 .59-.59v-2.55a.59.59 0 0 0-.59-.59h-5.58v-10.644c.636.005 1.408.05 2.042.275 1.132.447 4.77 6.183 7.154 10.84 1.71 3.033 4.213 3.286 6.63 3.286.357 0 .722-.006 1.09-.012l7.79-.014a.59.59 0 0 0 .593-.59v-2.55a.59.59 0 0 0-.59-.59zm-16.18-21.865c0 3.76-1.62 5.666-5.125 5.997-.014.002-1.54.187-3.402.165v-12.17h3.297c2.53 0 5.23 1.58 5.23 6.008zM379.014 330.235h-19.758a.59.59 0 0 0-.592.59v2.297c0 .326.265.59.592.59h4.937v28.127h-5.447a.59.59 0 0 0-.592.59v2.55c0 .327.264.59.592.59h20.27c12.53 0 19.432-6.32 19.432-17.794 0-11.148-7.083-17.54-19.433-17.54zm9.26 17.625c0 7.825-4.235 13.726-9.85 13.726h-4.153v-27.62h4.226c5.483 0 9.777 6.104 9.777 13.894zM423.744 330.236h-19.95a.59.59 0 0 0-.593.59v2.55c0 .327.266.59.594.59h4.936v27.872h-4.936a.592.592 0 0 0-.593.59v2.553c0 .326.266.59.594.59h19.95a.59.59 0 0 0 .592-.59v-2.55a.592.592 0 0 0-.592-.592h-4.936v-27.87h4.936a.59.59 0 0 0 .592-.59v-2.552a.59.59 0 0 0-.592-.59zM471.425 361.84h-4.482l-13.657-31.48a.593.593 0 0 0-.544-.354h-5.602a.59.59 0 0 0-.544.358l-13.52 31.475h-4.28a.59.59 0 0 0-.59.59v2.55c0 .326.264.59.59.59h14.258a.59.59 0 0 0 .592-.59v-2.55a.59.59 0 0 0-.592-.59h-3.23c.327-.84.79-2.01 1.23-3.125.456-1.157.89-2.254 1.125-2.856h11.726c.215.574.6 1.587 1.01 2.673.445 1.17.92 2.424 1.252 3.306H452.7a.59.59 0 0 0-.59.59v2.55c0 .326.264.59.59.59h18.725a.59.59 0 0 0 .59-.59v-2.55a.59.59 0 0 0-.59-.59zm-20.397-13.035l.834 2.252h-7.858c.863-2.214 2.89-7.4 4.034-10.32.804 2.16 2.06 5.553 2.99 8.068zM309.43 361.838h-2.82l-13.66-31.477a.592.592 0 0 0-.542-.355h-5.602c-.237 0-.45.14-.544.358 0 0-11.987 27.91-13.52 31.475h-4.277a.59.59 0 0 0-.592.59v2.553c0 .326.264.59.592.59h14.255a.59.59 0 0 0 .592-.59v-2.55a.59.59 0 0 0-.592-.592h-3.23c.34-.872.827-2.102 1.282-3.255l1.073-2.724h11.727c.218.58.61 1.613 1.028 2.716.44 1.156.907 2.392 1.235 3.262h-3.467a.59.59 0 0 0-.592.59v2.553c0 .326.264.59.592.59h17.062a.59.59 0 0 0 .59-.59v-2.55a.59.59 0 0 0-.59-.592zm-18.737-13.036l.835 2.255h-7.857c.864-2.214 2.89-7.4 4.034-10.32.805 2.16 2.058 5.55 2.99 8.065zM184.878 330.236h-18.044a.59.59 0 0 0-.592.59v2.554a.59.59 0 0 0 .595.59l5.78-.03v18.23l-17.937-21.72a.593.593 0 0 0-.457-.214h-14.2a.59.59 0 0 0-.59.59v2.55c0 .327.264.59.59.59h6.128l.547.71-.033 12.42-.04 14.742h-5.217a.592.592 0 0 0-.592.59v2.553c0 .326.265.59.592.59h17.457a.59.59 0 0 0 .592-.59v-2.55a.59.59 0 0 0-.592-.592h-6.414l-.007-19.832 19.89 24.028a.59.59 0 0 0 .456.214h5.983a.59.59 0 0 0 .592-.59v-31.69h5.513a.59.59 0 0 0 .592-.59v-2.552a.59.59 0 0 0-.592-.59zM272.94 333.377v-2.55a.59.59 0 0 0-.59-.59h-17.972a.59.59 0 0 0-.592.59v2.55c0 .326.265.59.592.59h5.494v18.115c0 8.057-4.91 9.746-9.027 9.746-6.704 0-7.428-7.568-7.428-10.823v-17.038h5.526a.59.59 0 0 0 .592-.59v-2.55a.59.59 0 0 0-.592-.59h-20.9a.59.59 0 0 0-.59.59v2.55c0 .326.265.59.59.59h5.368v18.817c0 8.436 6.484 13.888 16.517 13.888 10.227 0 16.835-5.627 16.835-14.336v-18.37h5.587a.59.59 0 0 0 .59-.59zM136.654 361.84h-2.257L120.74 330.36a.59.59 0 0 0-.545-.356h-5.6c-.238 0-.453.14-.546.358l-13.52 31.475h-4.278a.59.59 0 0 0-.592.59v2.55c0 .326.265.59.592.59h14.256a.59.59 0 0 0 .59-.59v-2.55a.59.59 0 0 0-.59-.59h-3.23c.345-.886.84-2.14 1.3-3.306.43-1.09.832-2.106 1.054-2.675h11.728c.22.588.62 1.637 1.042 2.752.434 1.147.896 2.365 1.22 3.227h-3.466a.59.59 0 0 0-.592.59v2.55c0 .326.265.59.592.59h16.498a.59.59 0 0 0 .59-.59v-2.55a.59.59 0 0 0-.59-.59zm-18.39-13.625l.205.552.846 2.29h-7.858c.863-2.214 2.89-7.4 4.034-10.32.744 2 1.87 5.042 2.772 7.478zM103.22 333.69a.59.59 0 0 0 .59-.59v-2.55a.59.59 0 0 0-.59-.59H88.962a.59.59 0 0 0-.59.59l-.002 2.55c0 .327.266.59.593.59h3.232c-.347.886-.842 2.14-1.302 3.306a621.2 621.2 0 0 0-1.204 3.058l-1.365 3.615c-.518 1.333-3.03 7.763-4.35 11.137a5375.595 5375.595 0 0 0-5.72-14.747c-.135-.372-.64-1.7-1.186-3.143a1063.93 1063.93 0 0 1-1.22-3.226h3.465a.59.59 0 0 0 .592-.59v-2.55a.59.59 0 0 0-.592-.59H60.592a.59.59 0 0 0-.592.59v2.55c0 .327.265.59.592.59h4.48l13.66 31.478a.593.593 0 0 0 .543.356h5.603c.236 0 .45-.14.544-.358L98.94 333.69h4.28zM225.014 351.358h-15.98a.59.59 0 0 0-.592.59v2.826c0 .326.265.59.592.59h5.01v6.985c-1.056.25-1.78.343-2.626.343-7.745 0-13.367-6.56-13.367-15.595 0-8.49 6.507-13.745 12.534-13.745 2.91 0 5.055.3 6.88.965v4.564c0 .326.265.59.592.59h3.14a.59.59 0 0 0 .592-.59v-7.378a.59.59 0 0 0-.363-.545c-2.562-1.068-6.2-2.294-11.65-2.294-13.692 0-22.54 7.534-22.54 19.195 0 11.955 8.036 18.812 22.046 18.812 5.895 0 13.378-2.028 13.694-2.114a.59.59 0 0 0 .435-.57v-8.624h1.605a.592.592 0 0 0 .592-.59v-2.825a.592.592 0 0 0-.593-.592z" fill="#ff6500"/><path d="M491.43 329.782h3.49l4.776 22.27c.77 3.533 1.437 7.424 1.693 10.547.257-3.175 1.027-6.862 1.797-10.497l4.826-22.32h3.49l2.363 35.683h-2.62l-1.385-22.783c-.204-3.532-.41-7.525-.41-10.137-.41 2.663-1.18 6.4-1.95 10.086l-4.723 22.834h-2.722l-4.67-22.68c-.823-3.942-1.645-7.885-2.004-10.34 0 2.507-.153 6.45-.41 10.39l-1.335 22.63h-2.516l2.31-35.684zM528.088 346.216l-7.393-16.434h2.772l6.264 14.438 6.008-14.438h2.67l-7.035 16.178L540 365.466h-2.773l-7.445-17.406-7.136 17.406h-2.67l8.112-19.25zM467.12 332.06c0-1.236.923-2.193 2.172-2.193 1.238 0 2.16.948 2.16 2.193 0 1.244-.922 2.19-2.16 2.19-1.25 0-2.17-.946-2.17-2.19h-.002zm3.962 0c0-1.038-.76-1.85-1.79-1.85-1.04 0-1.8.82-1.8 1.85 0 1.036.76 1.848 1.8 1.848 1.03 0 1.79-.812 1.79-1.848zm-2.578-1.173h.832c.543 0 .823.19.823.622 0 .35-.18.558-.508.603.127.036.21.127.28.27l.345.76h-.552l-.307-.705c-.072-.17-.11-.198-.262-.198h-.154v.902h-.498v-2.255zm.75 1.028c.272 0 .398-.108.398-.343 0-.216-.126-.324-.38-.324h-.27v.667h.252zM481.53 367a.33.33 0 0 1-.33-.328v-43.344a.33.33 0 0 1 .66 0v43.344a.33.33 0 0 1-.33.328z" fill="#221e1f"/></g><g><path d="M364.512 482.783h-3.187c-2.587 0-4.464-3.22-5.974-5.804l-.08-.142c-.408-.683-.775-1.403-1.13-2.098-1.2-2.35-2.434-4.77-5.46-6.65 5.47-2.078 8.455-5.918 8.455-10.94 0-7.786-6.55-12.434-17.524-12.434h-23.094a.712.712 0 0 0-.715.71v3.074c0 .392.32.71.716.71h5.965v33.573h-4.437a.712.712 0 0 0-.716.71v3.075c0 .393.32.71.716.71H341.4a.712.712 0 0 0 .715-.71v-3.074c0-.394-.32-.71-.716-.71h-6.74v-12.82c.766.005 1.7.06 2.465.33 1.368.538 5.762 7.447 8.644 13.056 2.064 3.654 5.09 3.96 8.01 3.96.432 0 .873-.008 1.317-.016l9.415-.016a.712.712 0 0 0 .715-.71v-3.074c0-.394-.32-.71-.715-.71zm-19.55-26.336c0 4.53-1.96 6.825-6.192 7.223-.017.003-1.862.226-4.11.2v-14.66h3.982c3.056 0 6.32 1.902 6.32 7.237zM395.476 444.715H371.6a.713.713 0 0 0-.714.712v2.765c0 .393.32.71.715.71h5.967v33.88h-6.583a.712.712 0 0 0-.715.712v3.073c0 .394.32.71.714.71h24.492c15.143 0 23.483-7.61 23.483-21.434 0-13.427-8.56-21.128-23.484-21.128zm11.188 21.23c0 9.426-5.117 16.534-11.903 16.534l-5.016-.002V449.21h5.105c6.624 0 11.813 7.35 11.813 16.735zM449.524 444.716h-24.107a.713.713 0 0 0-.715.71v3.073c0 .392.32.71.715.71h5.965v33.572h-5.965a.714.714 0 0 0-.715.712v3.073c0 .393.32.71.715.71h24.107a.713.713 0 0 0 .716-.71v-3.073a.714.714 0 0 0-.716-.712h-5.964v-33.57h5.964a.713.713 0 0 0 .716-.713v-3.073c0-.393-.32-.71-.716-.71zM507.14 482.783h-5.417l-16.503-37.916a.717.717 0 0 0-.657-.428h-6.77a.714.714 0 0 0-.656.43L460.8 482.783h-5.17a.712.712 0 0 0-.715.71v3.074c0 .393.32.712.715.712h17.227c.395 0 .715-.32.715-.713v-3.073c0-.393-.32-.71-.715-.71h-3.905c.398-1.012.956-2.42 1.487-3.763a1648.6 1648.6 0 0 0 1.36-3.44h14.17c.26.693.724 1.913 1.222 3.22a1369.7 1369.7 0 0 1 1.51 3.983h-4.188a.712.712 0 0 0-.714.71v3.074c0 .393.32.712.714.712h22.625c.393 0 .713-.32.713-.713v-3.073c0-.393-.32-.71-.714-.71zm-24.648-15.7l1.008 2.713h-9.495c1.043-2.667 3.49-8.914 4.874-12.43.97 2.603 2.487 6.688 3.612 9.717zM311.394 482.782h-3.408a1504612.2 1504612.2 0 0 0-16.503-37.915.715.715 0 0 0-.657-.43h-6.77a.715.715 0 0 0-.656.432l-16.335 37.912h-5.17a.713.713 0 0 0-.716.712v3.073c0 .393.32.71.715.71h17.225a.713.713 0 0 0 .716-.71v-3.073a.714.714 0 0 0-.716-.712h-3.904c.413-1.05 1-2.532 1.55-3.92.53-1.336 1.023-2.585 1.297-3.282h14.17c.264.702.737 1.945 1.243 3.272.53 1.394 1.095 2.882 1.49 3.93h-4.188a.713.713 0 0 0-.716.712v3.073c0 .393.32.71.716.71h20.616a.712.712 0 0 0 .715-.71v-3.073a.713.713 0 0 0-.716-.712zm-22.64-15.703l1.01 2.716h-9.495c1.042-2.667 3.49-8.914 4.873-12.43.972 2.602 2.487 6.685 3.61 9.713zM160.895 444.716H139.09a.712.712 0 0 0-.714.71v3.077c0 .19.076.37.21.504a.726.726 0 0 0 .51.207l6.982-.036v21.96l-21.673-26.163a.717.717 0 0 0-.552-.26h-17.157a.713.713 0 0 0-.715.712v3.072c0 .392.32.71.716.71h7.403l.66.853-.04 14.962-.05 17.757h-6.303a.714.714 0 0 0-.716.712v3.073c0 .393.322.71.717.71h21.094a.713.713 0 0 0 .716-.71v-3.073a.713.713 0 0 0-.715-.712h-7.75l-.008-23.888 24.035 28.943a.713.713 0 0 0 .55.258h7.23a.713.713 0 0 0 .716-.71V449.21h6.662a.713.713 0 0 0 .715-.71v-3.073c0-.393-.32-.71-.715-.71zM267.304 448.5v-3.074c0-.392-.32-.71-.715-.71h-21.716a.712.712 0 0 0-.715.71v3.074c0 .392.318.71.714.71h6.638v21.82c0 9.705-5.93 11.74-10.907 11.74-8.1 0-8.975-9.117-8.975-13.037V449.21h6.676c.395 0 .716-.318.716-.71v-3.074c0-.392-.32-.71-.716-.71h-25.252a.713.713 0 0 0-.716.71v3.074c0 .392.32.71.716.71h6.484v22.666c0 10.162 7.834 16.728 19.957 16.728 12.358 0 20.343-6.777 20.343-17.267V449.21h6.75c.396 0 .716-.318.716-.71zM102.624 482.783h-2.728l-16.503-37.915a.714.714 0 0 0-.657-.43h-6.77a.715.715 0 0 0-.656.432s-14.485 33.616-16.335 37.913h-5.17a.713.713 0 0 0-.716.71v3.074c0 .393.32.712.714.712H71.03c.395 0 .715-.32.715-.713v-3.073c0-.393-.32-.71-.715-.71h-3.904c.42-1.066 1.016-2.576 1.573-3.982.52-1.312 1.004-2.536 1.272-3.222h14.172c.266.71.747 1.973 1.258 3.316.525 1.382 1.083 2.85 1.475 3.887h-4.19a.713.713 0 0 0-.713.71v3.074c0 .393.32.712.714.712h19.936c.395 0 .714-.32.714-.713v-3.073c0-.393-.32-.71-.714-.71zm-22.222-16.41l.247.665 1.024 2.758H72.18c1.042-2.667 3.49-8.913 4.872-12.43.9 2.407 2.26 6.073 3.35 9.007zM62.224 448.878a.713.713 0 0 0 .715-.712v-3.073c0-.393-.322-.71-.716-.71H44.998a.713.713 0 0 0-.716.71v3.073c0 .394.32.712.716.712h3.904l-1.573 3.98a742.88 742.88 0 0 0-1.455 3.684l-1.65 4.355a7850.58 7850.58 0 0 1-5.257 13.416c-1.98-5.14-6.858-17.632-6.91-17.764-.163-.448-.773-2.05-1.433-3.787-.525-1.38-1.083-2.847-1.474-3.885h4.19a.713.713 0 0 0 .714-.712v-3.073c0-.393-.32-.71-.715-.71H10.714a.713.713 0 0 0-.715.71v3.073c0 .394.32.712.715.712h5.415l16.505 37.916c.113.26.37.428.656.428h6.77c.286 0 .545-.17.658-.43l16.334-37.914h5.172zM209.393 470.16h-19.31a.713.713 0 0 0-.715.71v3.403c0 .392.32.71.715.71h6.054v8.415c-1.277.303-2.152.415-3.173.415-9.36 0-16.152-7.902-16.152-18.786 0-10.226 7.86-16.556 15.144-16.556 3.515 0 6.108.36 8.314 1.163v5.498c0 .393.32.712.714.712h3.795c.394 0 .714-.32.714-.71v-8.89a.71.71 0 0 0-.44-.654c-3.095-1.287-7.49-2.764-14.077-2.764-16.544 0-27.234 9.076-27.234 23.122 0 14.4 9.71 22.658 26.638 22.658 7.123 0 16.166-2.44 16.547-2.546a.71.71 0 0 0 .525-.685v-10.39h1.94c.395 0 .716-.318.716-.71v-3.403c0-.393-.32-.71-.715-.71z" fill="#ff6500"/><path d="M531.31 444.17h4.22l5.77 26.824c.93 4.256 1.735 8.943 2.045 12.704.312-3.823 1.242-8.263 2.173-12.642l5.83-26.886h4.22l2.853 42.982h-3.163l-1.675-27.442c-.247-4.255-.497-9.065-.497-12.21-.496 3.206-1.427 7.708-2.357 12.148l-5.706 27.504h-3.288l-5.645-27.32c-.995-4.748-1.987-9.496-2.422-12.455 0 3.02-.185 7.77-.495 12.518l-1.614 27.257h-3.042l2.793-42.982zM575.607 463.965l-8.934-19.795h3.35l7.568 17.39 7.26-17.39h3.226l-8.5 19.486L590 487.152h-3.35l-8.996-20.966-8.624 20.966h-3.225l9.802-23.187zM501.937 446.913c0-1.49 1.115-2.64 2.624-2.64 1.498 0 2.612 1.14 2.612 2.64 0 1.5-1.114 2.64-2.61 2.64-1.51 0-2.625-1.14-2.625-2.64zm4.787 0c0-1.25-.918-2.228-2.163-2.228-1.256 0-2.175.99-2.175 2.228 0 1.248.92 2.226 2.176 2.226 1.246 0 2.164-.978 2.164-2.227zm-3.115-1.413h1.005c.655 0 .994.228.994.75 0 .423-.22.673-.613.727.153.044.252.153.34.326l.415.913h-.667l-.372-.848c-.087-.205-.13-.238-.316-.238h-.187v1.086h-.6V445.5zm.906 1.24c.328 0 .48-.132.48-.414 0-.26-.152-.39-.458-.39h-.328v.803h.306zM519.348 489a.397.397 0 0 1-.398-.396v-52.208c0-.22.178-.396.398-.396.22 0 .398.177.398.396v52.208c0 .22-.178.396-.398.396z" fill="#221e1f"/></g></svg>